<?xml version="1.0" encoding="UTF-8"?>
<svg id="Layer_2" data-name="Layer 2" xmlns="http://www.w3.org/2000/svg" xmlns:xlink="http://www.w3.org/1999/xlink" viewBox="0 0 455.7 115">
  <defs>
    <style>
      .cls-1 {
        fill: #117858;
      }

      .cls-1, .cls-2, .cls-3, .cls-4, .cls-5, .cls-6 {
        stroke-width: 0px;
      }

      .cls-2 {
        fill: url(#linear-gradient);
      }

      .cls-3 {
        fill: url(#linear-gradient-5);
      }

      .cls-4 {
        fill: url(#linear-gradient-2);
      }

      .cls-5 {
        fill: url(#linear-gradient-3);
      }

      .cls-6 {
        fill: url(#linear-gradient-4);
      }
    </style>
    <linearGradient id="linear-gradient" x1="120.85" y1="36.86" x2="87.86" y2="131.66" gradientUnits="userSpaceOnUse">
      <stop offset="0" stop-color="#0eb484"/>
      <stop offset=".44" stop-color="#0f7f5d"/>
      <stop offset=".81" stop-color="#0f5942"/>
      <stop offset="1" stop-color="#104b38"/>
    </linearGradient>
    <linearGradient id="linear-gradient-2" x1="0" y1="57.52" x2="120.68" y2="57.52" gradientUnits="userSpaceOnUse">
      <stop offset="0" stop-color="#124b42"/>
      <stop offset=".33" stop-color="#206c59"/>
      <stop offset="1" stop-color="#43ba91"/>
    </linearGradient>
    <linearGradient id="linear-gradient-3" x1="74.26" y1="18.94" x2="153.49" y2="81.3" gradientUnits="userSpaceOnUse">
      <stop offset="0" stop-color="#135a44"/>
      <stop offset="0" stop-color="#125b45"/>
      <stop offset=".11" stop-color="#108b67"/>
      <stop offset=".19" stop-color="#0ea87c"/>
      <stop offset=".24" stop-color="#0eb484"/>
      <stop offset=".48" stop-color="#0e8763"/>
      <stop offset=".7" stop-color="#0f664b"/>
      <stop offset=".88" stop-color="#0f523d"/>
      <stop offset="1" stop-color="#104b38"/>
    </linearGradient>
    <linearGradient id="linear-gradient-4" x1="70.39" y1="88.25" x2="156.15" y2="103.81" gradientUnits="userSpaceOnUse">
      <stop offset=".03" stop-color="#104b38"/>
      <stop offset=".19" stop-color="#0f4e3a"/>
      <stop offset=".32" stop-color="#0f5842"/>
      <stop offset=".44" stop-color="#0f6a4e"/>
      <stop offset=".56" stop-color="#0e8360"/>
      <stop offset=".68" stop-color="#0ea377"/>
      <stop offset=".73" stop-color="#0eb484"/>
      <stop offset=".83" stop-color="#0f7e5d"/>
      <stop offset=".91" stop-color="#0f5942"/>
      <stop offset=".96" stop-color="#104b38"/>
    </linearGradient>
    <linearGradient id="linear-gradient-5" x1=".11" y1="57.5" x2="120.9" y2="57.5" gradientUnits="userSpaceOnUse">
      <stop offset="0" stop-color="#124b42"/>
      <stop offset=".21" stop-color="#206c59"/>
      <stop offset=".64" stop-color="#43ba91"/>
      <stop offset=".67" stop-color="#3aa683"/>
      <stop offset=".75" stop-color="#277a63"/>
      <stop offset=".81" stop-color="#1c5f50"/>
      <stop offset=".85" stop-color="#185549"/>
      <stop offset=".95" stop-color="#30886d"/>
      <stop offset="1" stop-color="#3ea683"/>
    </linearGradient>
  </defs>
  <g id="Layer_1-2" data-name="Layer 1">
    <g>
      <g>
        <path class="cls-2" d="m152.15,100.75c0,7.84-6.35,14.2-14.19,14.21h0l-5.37-1.04h0l-3.6-.7-34.49-6.7-18.41-3.58-12.17-2.37c3.02-1.32,5.39-2.38,6.97-2.97,24.33-9.02,34.44-12.62,41.02-13.95,3.37-.68,5.81-.77,8.76-.68h0c-.03-.24-.08-.48-.14-.72-1.2-5.09-6.97-8.57-15.23-10.02l-1.87-3.24-4.3-7.45-10.19-17.64h0c-.47-1.16-1.1-2.23-1.85-3.2h0c-2.54-3.3-6.53-5.42-11.01-5.42s-8.39,2.08-10.93,5.32l10.95-18.96,11.32-19.61c7.28,2.53,13.48,7.38,17.69,13.68l2.32,4.02,25.17,43.6,14.29,24.75.57.98,1.81,3.14h0s1.73,3,1.73,3h0s0,0,0,0h0c.72,1.71,1.12,3.58,1.12,5.54Z"/>
        <path class="cls-4" d="m120.68,82.98h0s0,0,0,0c-2.95-.09-5.39,0-8.76.68-6.58,1.33-16.69,4.93-41.02,13.95-1.58.59-3.95,1.65-6.97,2.97-3.96,1.72-9.04,3.88-14.94,5.97-6.01,2.12-12.87,4.17-20.28,5.61l-5.46,1.06-3.34.65-5.72,1.11c-7.85-.09-14.18-6.48-14.18-14.35,0-1.66.28-3.25.8-4.73h0s2.67-4.63,2.67-4.63h0s1.27-2.19,1.27-2.19l.58-1,14.28-24.74,23.61-40.9,5.27-9.13c4.17-5.21,9.78-9.21,16.24-11.38,3.52-1.18,7.28-1.83,11.2-1.83s18.53-1.38,30,16.99c0,0-13.9-5.98-20.71-3.96s-11.31,12.34-15.58,19.74l-4.46,7.73h0c-.81,1.03-1.47,2.18-1.96,3.41h0s-10.24,17.75-10.24,17.75l-4.18,7.24-6.91,11.97,32.24-6.27,1.99-.39,12.67-2.46c6.09-.62,11.75-.47,16.56.38,8.26,1.45,14.03,4.94,15.23,10.02.06.24.1.48.14.73Z"/>
      </g>
      <g>
        <path class="cls-1" d="m183.91,98.71l31.26-81c.92-2.38,3.21-3.95,5.76-3.95h14.58c2.56,0,4.86,1.58,5.77,3.97l30.91,80.99c.75,1.97-.7,4.07-2.8,4.07h-17.94c-1.29,0-2.43-.82-2.84-2.04l-23.42-69.11c-.66-1.95.79-3.97,2.84-3.97h0c2.06,0,3.51,2.03,2.84,3.98l-23.88,69.11c-.42,1.21-1.56,2.02-2.84,2.02h-17.44c-2.11,0-3.56-2.12-2.8-4.08Zm19.74-11.22v-18.43h49.41v18.43h-49.41Z"/>
        <path class="cls-1" d="m281.02,65.9V13.98c0-1.51,1.22-2.73,2.73-2.73h17.48c1.51,0,2.73,1.22,2.73,2.73v42.54l-3.89,14.8,3.39,14.92v16.55h0c-2.73,0-22.45-4.64-22.45-36.89Zm35.99,38.56c-1.16,0-8.23.25-15.25-1.92-2.96-.98-.4-4.3-2.62-6.89-2.22-2.59-3.62-5.39-4.2-8.4v-31.47c.58-3.01,1.98-5.71,4.2-8.09,2.21-2.38,4.97-4.24,8.28-5.58,3.3-1.34,6.83-2.01,10.6-2.01,6.02,0,11.31,1.36,15.86,4.08,4.56,2.72,8.11,6.5,10.66,11.35,2.55,4.85,3.82,10.37,3.82,16.55s-1.28,11.79-3.82,16.55c-2.55,4.77-6.1,8.53-10.66,11.29-4.56,2.76-10.85,4.55-16.87,4.55Zm-3.01-20.6c2.17,0,4.14-.5,5.89-1.5s3.11-2.4,4.08-4.2c.96-1.8,1.44-3.82,1.44-6.08s-.48-4.39-1.44-6.14c-.96-1.76-2.34-3.13-4.14-4.14-1.8-1-3.78-1.5-5.96-1.5s-4.24.5-5.96,1.5c-1.71,1-3.03,2.38-3.95,4.14-.92,1.76-1.38,3.8-1.38,6.14s.48,4.31,1.44,6.14c.96,1.84,2.3,3.24,4.01,4.2,1.71.96,3.7,1.44,5.96,1.44Z"/>
        <path class="cls-1" d="m382.59,104.05c-5.77,0-10.85-1.38-15.24-4.14s-7.86-6.52-10.41-11.29c-2.55-4.77-3.82-10.28-3.82-16.55s1.27-11.7,3.82-16.55c2.55-4.85,6.04-8.63,10.47-11.35,4.43-2.72,9.45-4.08,15.05-4.08,3.84,0,7.34.67,10.47,2.01,3.13,1.34,5.73,3.2,7.77,5.58,2.05,2.38,3.32,5.08,3.82,8.09v32.48c-.5,3.09-1.78,5.83-3.82,8.21-2.05,2.38-4.66,4.24-7.84,5.58-3.18,1.34-6.6,2.01-10.28,2.01Zm4.89-20.19c3.43,0,6.19-1.11,8.28-3.32,2.09-2.21,3.13-5.04,3.13-8.46,0-2.34-.46-4.39-1.38-6.14-.92-1.76-2.24-3.13-3.95-4.14-1.71-1-3.66-1.5-5.83-1.5s-4.24.52-5.96,1.57c-1.71,1.05-3.07,2.45-4.08,4.2-1,1.76-1.5,3.76-1.5,6.02s.48,4.29,1.44,6.08c.96,1.8,2.3,3.2,4.01,4.2,1.71,1,3.66,1.5,5.83,1.5Zm10.66,18.93v-16.55l3.26-14.92-3.26-14.8v-15.17h22.32v61.44h-22.32Z"/>
        <path class="cls-1" d="m432.75,99.88V31.91c0-1.61,1.3-2.91,2.91-2.91h17.13c1.61,0,2.91,1.3,2.91,2.91v67.98c0,1.61-1.3,2.91-2.91,2.91h-17.13c-1.61,0-2.91-1.3-2.91-2.91Z"/>
      </g>
      <g>
        <path class="cls-5" d="m120.9,82.98h0c-.03-.24-.08-.48-.14-.73-1.2-5.09-6.98-8.58-15.24-10.03l-1.87-3.24-4.31-7.46-10.19-17.65h0c-.47-1.16-1.1-2.23-1.85-3.2h0c-2.54-3.3-6.53-5.43-11.02-5.43s-8.4,2.08-10.94,5.32l10.96-18.98L87.63,1.95c7.29,2.53,13.49,7.39,17.7,13.69l2.33,4.03,25.19,43.64,14.3,24.77.42.73-30.01-5.83c1.09-.04,2.17-.04,3.33,0h0Z"/>
        <path class="cls-6" d="m152.4,100.77c0,7.85-6.36,14.21-14.2,14.22h0l-5.37-1.05h0l-3.6-.7-34.52-6.71-18.42-3.58-12.18-2.37c3.03-1.32,5.4-2.38,6.98-2.97,24.35-9.03,34.47-12.63,41.05-13.96,2.05-.42,3.75-.61,5.44-.68h3.33l26.68,5.83.15.26,1.82,3.15h0s1.73,3,1.73,3h0s0,.01,0,.01c.72,1.7,1.12,3.57,1.12,5.54Z"/>
        <path class="cls-3" d="m120.9,82.98h0s0,0,0,0c-2.95-.09-5.4,0-8.77.68-6.58,1.33-16.7,4.93-41.05,13.96-1.58.59-3.95,1.65-6.98,2.97-3.96,1.73-9.05,3.89-14.96,5.97-6.01,2.12-12.88,4.17-20.29,5.61l-5.46,1.06-3.34.65-5.73,1.11c-7.85-.09-14.19-6.48-14.19-14.36,0-1.66.28-3.25.8-4.73h0s2.67-4.64,2.67-4.64h0s1.27-2.19,1.27-2.19l.58-1,14.3-24.76,23.63-40.94,5.28-9.14c4.17-5.22,9.79-9.22,16.26-11.39C68.42.66,72.19.02,76.11.02s18.55-1.38,30.03,17.01c0,0-13.91-5.98-20.73-3.96s-11.32,12.35-15.6,19.75l-4.47,7.74h0c-.81,1.03-1.47,2.18-1.96,3.41h0s-10.25,17.77-10.25,17.77l-4.19,7.25-6.91,11.98,32.27-6.27,1.99-.39,12.68-2.46c6.1-.62,11.76-.47,16.58.38,8.27,1.45,14.05,4.94,15.24,10.03.06.24.1.49.14.73Z"/>
      </g>
    </g>
  </g>
</svg>