<?xml version="1.0" encoding="UTF-8"?>
<svg id="Layer_2" data-name="Layer 2" xmlns="http://www.w3.org/2000/svg" xmlns:xlink="http://www.w3.org/1999/xlink" viewBox="0 0 152.28 115">
  <defs>
    <style>
      .cls-1 {
        fill: url(#linear-gradient);
      }

      .cls-1, .cls-2, .cls-3 {
        stroke-width: 0px;
      }

      .cls-2 {
        fill: url(#linear-gradient-2);
      }

      .cls-3 {
        fill: url(#linear-gradient-3);
      }
    </style>
    <linearGradient id="linear-gradient" x1="74.14" y1="18.94" x2="153.38" y2="81.3" gradientUnits="userSpaceOnUse">
      <stop offset="0" stop-color="#135a44"/>
      <stop offset="0" stop-color="#125b45"/>
      <stop offset=".11" stop-color="#108b67"/>
      <stop offset=".19" stop-color="#0ea87c"/>
      <stop offset=".24" stop-color="#0eb484"/>
      <stop offset=".48" stop-color="#0e8763"/>
      <stop offset=".7" stop-color="#0f664b"/>
      <stop offset=".88" stop-color="#0f523d"/>
      <stop offset="1" stop-color="#104b38"/>
    </linearGradient>
    <linearGradient id="linear-gradient-2" x1="70.28" y1="88.25" x2="156.03" y2="103.81" gradientUnits="userSpaceOnUse">
      <stop offset=".03" stop-color="#104b38"/>
      <stop offset=".19" stop-color="#0f4e3a"/>
      <stop offset=".32" stop-color="#0f5842"/>
      <stop offset=".44" stop-color="#0f6a4e"/>
      <stop offset=".56" stop-color="#0e8360"/>
      <stop offset=".68" stop-color="#0ea377"/>
      <stop offset=".73" stop-color="#0eb484"/>
      <stop offset=".83" stop-color="#0f7e5d"/>
      <stop offset=".91" stop-color="#0f5942"/>
      <stop offset=".96" stop-color="#104b38"/>
    </linearGradient>
    <linearGradient id="linear-gradient-3" x1="0" y1="57.5" x2="120.79" y2="57.5" gradientUnits="userSpaceOnUse">
      <stop offset="0" stop-color="#124b42"/>
      <stop offset=".21" stop-color="#206c59"/>
      <stop offset=".64" stop-color="#43ba91"/>
      <stop offset=".67" stop-color="#3aa683"/>
      <stop offset=".75" stop-color="#277a63"/>
      <stop offset=".81" stop-color="#1c5f50"/>
      <stop offset=".85" stop-color="#185549"/>
      <stop offset=".95" stop-color="#30886d"/>
      <stop offset="1" stop-color="#3ea683"/>
    </linearGradient>
  </defs>
  <g id="Layer_1-2" data-name="Layer 1">
    <g>
      <path class="cls-1" d="m120.79,82.98h0c-.03-.24-.08-.48-.14-.73-1.2-5.09-6.98-8.58-15.24-10.03l-1.87-3.24-4.31-7.46-10.19-17.65h0c-.47-1.16-1.1-2.23-1.85-3.2h0c-2.54-3.3-6.53-5.43-11.02-5.43s-8.4,2.08-10.94,5.32l8.7-16.77c.74-1.43,1.54-2.82,2.4-4.17L87.51,1.95c7.29,2.53,13.49,7.39,17.7,13.69l2.33,4.03,25.19,43.64,14.3,24.77.42.73-30.01-5.83c1.09-.04,2.17-.04,3.33,0h0Z"/>
      <path class="cls-2" d="m152.28,100.77c0,7.85-6.36,14.21-14.2,14.22h0l-5.37-1.05h0l-3.6-.7-34.52-6.71-18.42-3.58-12.18-2.37c3.03-1.32,5.4-2.38,6.98-2.97,24.35-9.03,34.47-12.63,41.05-13.96,2.05-.42,3.75-.61,5.44-.68h3.33l26.68,5.83.15.26,1.82,3.15h0s1.73,3,1.73,3h0s0,.01,0,.01c.72,1.7,1.12,3.57,1.12,5.54Z"/>
      <path class="cls-3" d="m120.79,82.98h0s0,0,0,0c-2.95-.09-5.4,0-8.77.68-6.58,1.33-16.7,4.93-41.05,13.96-1.58.59-3.95,1.65-6.98,2.97-3.96,1.73-9.05,3.89-14.96,5.97-6.01,2.12-12.88,4.17-20.29,5.61l-5.46,1.06-3.34.65-5.73,1.11c-7.85-.09-14.19-6.48-14.19-14.36,0-1.66.28-3.25.8-4.73h0s2.67-4.64,2.67-4.64h0s1.27-2.19,1.27-2.19l.58-1,14.3-24.76,23.63-40.94,5.28-9.14c4.17-5.22,9.79-9.22,16.26-11.39C68.3.66,72.07.02,75.99.02s18.55-1.38,30.03,17.01c0,0-13.91-5.98-20.73-3.96s-11.32,12.35-15.6,19.75l-4.47,7.74h0c-.81,1.03-1.47,2.18-1.96,3.41h0s-10.25,17.77-10.25,17.77l-4.19,7.25-6.91,11.98,32.27-6.27,1.99-.39,12.68-2.46c6.1-.62,11.76-.47,16.58.38,8.27,1.45,14.05,4.94,15.24,10.03.06.24.1.49.14.73Z"/>
    </g>
  </g>
</svg>